<svg width="50" height="50" viewBox="0 0 50 50" fill="none" xmlns="http://www.w3.org/2000/svg">
  <rect width="50" height="50" rx="10" fill="#264DE4"/>
  <path d="M25.305 12.553c-2.997 0-5.663 1.063-7.79 3.163-2.13 2.1-3.35 4.857-3.35 8.02 0 3.164 1.2 5.915 3.33 8.015 2.14 2.1 4.88 3.15 7.88 3.15 3.037 0 5.467-1.01 7.297-2.963 1.56-1.585 2.62-3.697 3.17-6.273l-4.557-.005c-.383 1.3-.82 2.243-1.367 2.83-.86.928-1.953 1.422-3.277 1.422-1.98 0-3.62-.68-4.88-2.027-1.257-1.35-1.88-2.96-1.88-4.73 0-1.81.62-3.417 1.85-4.702 1.26-1.285 2.9-1.942 4.88-1.942 1.326 0 2.407.48 3.277 1.42.53.57.953 1.523 1.367 2.833h4.563c-.57-2.58-1.62-4.697-3.173-6.27-1.83-1.953-4.26-2.963-7.3-2.963Z" fill="white"/>
</svg>
